<?xml version="1.0" encoding="UTF-8" standalone="no"?>
<svg xmlns:rdf="http://www.w3.org/1999/02/22-rdf-syntax-ns#" xmlns="http://www.w3.org/2000/svg" height="297.81368" width="285.0381" version="1.1" xmlns:cc="http://creativecommons.org/ns#" xmlns:dc="http://purl.org/dc/elements/1.1/" viewBox="0 0 285.0381 297.81368"><path d="M285.0381,142.51907a142.55321,142.55321,0,0,0-273.833-55.47852A142.38753,142.38753,0,0,0,34.34271,235.31346c-3.24478,11.15585-5.64349,19.41343-5.64349,19.41343l-3.02383,10.41045,10.62272-2.16357c.13272-.02664,9.11332-1.85538,16.2251-3.26716v38.10707l7.77294-1.47474a500.25023,500.25023,0,0,1,82.34872-7.19231,499.44459,499.44459,0,0,1,82.34927,7.18915l7.77239,1.47364V259.70661c7.11211,1.41179,16.09265,3.24052,16.22516,3.26826l10.62294,2.16357-3.0241-10.41154s-2.43065-8.36743-5.7083-19.63525a142.01822,142.01822,0,0,0,34.15588-92.57257Z" fill="#fff"/><path d="M278.48663,142.51907A136.00162,136.00162,0,0,0,17.23922,89.59225,135.83311,135.83311,0,0,0,41.64034,233.683c-3.74275,12.86409-6.64958,22.87152-6.64958,22.87152s19.599-3.99121,24.08392-4.78776v38.13481a502.33324,502.33324,0,0,1,83.57019-7.30642,502.54759,502.54759,0,0,1,83.57019,7.3032V251.76678c4.48492.79655,24.08419,4.78776,24.08419,4.78776s-2.93959-10.11935-6.71226-23.08477a135.48207,135.48207,0,0,0,34.89964-90.9507Z" fill="#00305f"/><path d="M189.22736,85.42185a228.91717,228.91717,0,0,0-24.42782-9.73762q-4.83122-1.62108-9.59687-3.00914c.04477,2.38108.032,4.61234-.03358,6.57276,2.52341.76084,5.06232,1.56111,7.62258,2.42055q4.93473,1.65629,9.62968,3.46185c2.552.06289,5.16791.10182,7.99443.13594C183.33218,85.30136,186.25283,85.34935,189.22736,85.42185Z" fill="#00adee"/><path d="M94.7042,100.1488A89.5354,89.5354,0,0,0,66.86361,120.29c-13.59239,14.17029-23.0032,30.85126-27.2146,48.23974a71.42942,71.42942,0,0,0-1.60587,25.082q-1.42478-2.90787-2.69942-5.90211a115.57889,115.57889,0,0,1-9.13783-45.2722,116.91065,116.91065,0,0,1,1.80559-20.531,92.23087,92.23087,0,0,0-8.35706,20.531,122.33762,122.33762,0,0,0,26.6711,76.43329q1.13717-3.89952,2.27762-7.80226-.8693-1.18688-1.71064-2.39282c-7.44236-21.31576-2.70494-55.27591,24.70134-83.84852,9.1898-9.58038,19.25985-16.39626,29.51656-20.20889C99.01556,103.08653,96.88109,101.60328,94.7042,100.1488Z" fill="#00adee"/><path d="M54.92432,65.921q2.57235-2.93989,5.34889-5.72937a115.93318,115.93318,0,0,1,36.97334-24.9295q3.69241-1.56187,7.464-2.85186c8.94,1.832,16.02812,5.507,23.45077,9.35965,6.31158,3.27623,12.8233,6.64636,20.8007,9.10474.25431-.53793.46548-1.03486.68163-1.544a28.95927,28.95927,0,0,1,1.24363-2.65569,5.6852,5.6852,0,0,1,1.37979-1.657c-8.05285-2.315-14.66667-5.76082-21.08542-9.06587a89.13952,89.13952,0,0,0-15.65141-6.68048,117.33667,117.33667,0,0,1,51.37424-.58647A66.43312,66.43312,0,0,0,153.8903,44.07159a4.82368,4.82368,0,0,1,1.71943-.34657,4.9119,4.9119,0,0,1,1.32809.22663,4.51127,4.51127,0,0,1,2.9961,2.88543c4.71313-7.43275,9.45028-12.8209,14.29722-16.343a116.0424,116.0424,0,0,1,41.87974,21.8633c-8.86032-1.745-17.08138-2.18169-26.34614-2.605-9.72053-.44414-19.71573-.9064-29.82574-2.90039a7.70078,7.70078,0,0,1,.25671,3.60145,10.50118,10.50118,0,0,0-2.3582,2.6605c10.85088,2.22914,21.38777,2.71859,31.62761,3.18724,12.19846.55715,23.8003,1.0924,35.73986,4.341a115.88567,115.88567,0,0,1,33.62723,81.79534q0,4.20744-.30071,8.36525c.76215,9.58464,1.22305,22.19065-.6118,33.87433A122.92626,122.92626,0,0,0,101.45636,26.61164c-.08446-.008-.16684-.017-.2519-.02506l-.08157.14288A123.15566,123.15566,0,0,0,24.3124,108.81585C31.28934,90.77479,41.80805,76.47118,54.92432,65.921Z" fill="#00adee"/><path d="M109.7657,65.97c2.44637,1.648,5.133,3.43892,8.08053,5.33055q6.07371.70854,12.40985,1.87088c1.42729-2.01534,2.77193-3.75083,4.328-5.554a186.54752,186.54752,0,0,0-27.40257-3.38875Q108.47867,65.10208,109.7657,65.97Z" fill="#00adee"/><path d="M115.86212,161.44409a5.80575,5.80575,0,0,1-2.1473-.80878q-1.5459,7.9014-2.72634,15.12735,3.35329-.216,6.69626-.38921,1.13521-6.76742,2.585-14.14048A12.35155,12.35155,0,0,1,115.86212,161.44409Z" fill="#00adee"/><path d="M247.43751,192.6873a115.74636,115.74636,0,0,1-11.0015,18.3855q1.14,3.89952,2.27658,7.798a123.22375,123.22375,0,0,0,9.511-13.79074A81.70722,81.70722,0,0,0,247.43751,192.6873Z" fill="#00adee"/><path d="M172.06944,123.11416c-2.13824-.08637-4.28821-.13329-6.4704-.13329-.70139,0-1.39716.00586-2.09292.0112a115.10374,115.10374,0,0,1,15.25767,23.56834,171.9156,171.9156,0,0,1,15.49527,48.22112q1.86021-6.00762,3.72489-12.02168l.32364-1.04289a176.91343,176.91343,0,0,0-13.68117-38.08785A129.52647,129.52647,0,0,0,172.06944,123.11416Z" fill="#00adee"/><path d="M261.7622,92.06079A129.44787,129.44787,0,1,0,44.11182,226.48858l2.21795-7.61461a122.33289,122.33289,0,0,1-26.67535-76.43646l.00055-.0475c.03281-.19993.06852-.40734.1093-.627,6.13507-33.05059,30.36667-56.25159,47.23611-60.48914,20.22652,9.98663,34.38322,18.64036,49.18856,31.83393a177.32489,177.32489,0,0,0-1.1351,20.66312,59.5929,59.5929,0,0,0-6.59466,12.49519,14.72716,14.72716,0,0,0,6.63413,10.34379c1.55226-4.7627,3.77185-9.92794,3.77185-9.92794.07168.024-1.21885,10.68878-1.21885,10.68878a17.12249,17.12249,0,0,0,11.05512-4.37616c.22712-5.70961.249-8.96831.85115-14.24072a101.51655,101.51655,0,0,1,11.90124-17.73505,335.05324,335.05324,0,0,1,78.01225,3.23309c18.029,13.71344,32.62245,43.412,28.9711,80.472a123.17,123.17,0,0,1-9.72217,14.13513l2.22728,7.6103A129.55846,129.55846,0,0,0,261.7622,92.06079Zm-4.72754,94.97286c4.33778-46.05062-11.90626-79.43709-31.4463-96.20339a5.452,5.452,0,0,0-2.84951-1.037c-26.02272-3.3424-51.4166-.14239-75.73965-3.62711l.7971-.01278c.41662-.02561,4.57664-.651,4.72989-1.53233a80.17961,80.17961,0,0,0,.45718-12.53193c-.07807-3.56733.03838-7.96752-.752-9.74029a27.50721,27.50721,0,0,1,2.01425-7.10169c.89864-2.25578,2.58663-5.596,3.77425-6.18148a2.82833,2.82833,0,0,0-1.89-3.05872,3.212,3.212,0,0,0-3.30211,1.71944c-1.13379,2.0921-1.39344,3.47086-2.97344,6.17826a29.71478,29.71478,0,0,1-4.13065,5.14607s2.4384.26763,2.89449.97568a9.7533,9.7533,0,0,0-4.43054-.0149c-3.05823.61846-5.90315,4.93118-7.21524,8.22772a94.12144,94.12144,0,0,0-9.26635,12.717c-18.77308-10.74692-27.635-19.8432-43.13636-27.04939a4.43,4.43,0,0,0-3.167-.44676c-20.53575,5.828-44.698,27.90561-57.12277,55.47317a122.89,122.89,0,1,1,232.75479,78.10048ZM148.938,69.29644c.4633-2.07081.9005-3.74493,1.10523-5.13166a2.45334,2.45334,0,0,1,.87784,1.47152,53.84515,53.84515,0,0,1-.55742,5.50913S148.8882,70.30144,148.938,69.29644Z" fill="#fff"/><path d="M164.74249,267.60376q5.00156.22709,9.9994.55873v8.87288q-10.00475-.66383-20.02627-.91278v-32.285q5.01433.12481,10.02686.353Zm45.81526-19.13723q4.5577.64458,9.10584,1.37554v32.285q-4.46016-.71657-8.93042-1.351-4.82287-8.946-9.65583-17.79478V279.506q-4.49767-.547-9.00292-1.00767v-32.285q4.48252.45909,8.95788,1.00128,4.76726,8.77152,9.52546,17.63585Zm-32.65019-3.49543q5.00434.36467,10.00208.8328v32.286q-4.99754-.46859-10.00208-.83384Zm-82.38978,1.00128q11.69823-1.142,23.43161-1.71572v7.43652q-6.86144.33593-13.71452.86589v4.70674q5.9005-.4559,11.809-.76887v7.19979q-5.90763.31357-11.809.76887v5.22387q6.85218-.531,13.71452-.86583v7.718q-11.72984.5726-23.43161,1.71572Zm50.12613,16.13557c3.83207-1.73488,5.72451-4.25993,5.72424-8.54656,0-6.801-5.31133-9.92422-12.34745-9.87094q-8.25567.0624-16.50687.40417v32.28494q5.03513-.20793,10.07322-.31349V263.96441q1.56113-.032,3.12221-.05547,2.36484,6.01884,4.73071,12.058,5.535-.02563,11.07.07567Q148.57739,269.05767,145.64391,262.10795Zm-9.00243-4.99681q-2.02735.02563-4.05443.06721v-6.447q2.18975-.0448,4.37966-.07147c2.75216-.0309,4.04111,1.15486,4.04084,3.15311C141.00754,256.62174,138.8176,257.08346,136.64148,257.11114Zm-49.99466,5.28578a8.08921,8.08921,0,0,0,5.02154-7.68711c.00082-5.2783-3.54631-7.991-10.57735-7.10059q-7.74548.99165-15.46486,2.23285v32.28816q8.31013-1.33716,16.65275-2.38321c6.75937-.84028,10.20015-5.53632,10.19933-10.2399C92.47823,266.00749,90.57966,262.94288,86.64682,262.39692ZM74.6603,255.42746q2.20809-.31193,4.41831-.60465c2.37682-.31349,3.55188.57478,3.55133,2.23394.00055,1.86286-1.19,2.85988-3.553,3.17124q-2.20924.29277-4.41667.60465Zm5.05113,17.32236q-2.52674.3311-5.05113.68774V267.7605q2.44476-.34551,4.89149-.66749c2.41012-.31458,3.52016.63233,3.52043,2.32561C83.0725,271.33482,81.97365,272.4555,79.71143,272.74983ZM136.43434,223.569q-8.96389.11522-17.92188.56092V181.74044q-8.95152.44624-17.88726,1.22305V239.6139q17.8734-1.55466,35.80914-1.785Zm40.972-13.9293c5.37079-.95116,8.85235-5.92553,8.85262-11.90976-.00082-9.24817-6.22068-15.27825-18.6177-15.94574q-13.65957-.70379-27.338-.63871v56.64932q14.72157-.07035,29.43254.75173c11.9132.691,17.94432-6.30939,17.94535-14.57446A14.61306,14.61306,0,0,0,177.40637,209.63967Zm-21.11769-16.11209q3.902.11031,7.80231.28253c4.19354.18874,6.26408,2.12732,6.26381,5.03945,0,3.26826-2.09718,4.63211-6.26648,4.44441q-3.89878-.17271-7.79964-.28253Zm8.9195,31.93411q-4.45852-.20793-8.9195-.33374v-9.96048q4.31979.12153,8.63746.31988c4.25223.19938,6.20785,2.2222,6.20785,5.19193C171.13378,224.04242,169.19809,225.65043,165.20819,225.46169Zm-83.1759,16.11853q8.21292-1.03489,16.4496-1.78822-8.47326-27.53665-16.92354-54.77685-9.904,1.25715-19.76481,2.9249-8.76513,29.79347-17.48686,59.91332,8.3089-1.721,16.66017-3.14776,1.31242-5.13275,2.62583-10.258,7.94784-1.31316,15.926-2.36082Q80.77552,236.83084,82.03229,241.58022ZM66.90439,221.54085q2.416-9.405,4.83526-18.78427,2.30522,8.68193,4.61344,17.38526Q71.62383,220.79445,66.90439,221.54085Zm138.86636,10.5459q7.9774,1.04766,15.9263,2.36082,1.31357,5.12472,2.62583,10.258,8.3501,1.42675,16.66017,3.14776Q232.26272,217.73355,223.4962,187.94q-9.85882-1.66825-19.76475-2.9249-8.44886,27.23914-16.92387,54.77685,8.23618.75334,16.44987,1.78822Q204.51426,236.82975,205.77075,232.08676Zm3.16594-11.94492q2.308-8.70437,4.61338-17.38526,2.41921,9.37933,4.83526,18.78427Q213.66648,220.7939,208.9367,220.14184Z" fill="#ffd100"/></svg>