<?xml version="1.0" encoding="UTF-8" standalone="no"?>
<svg height="273.44263pt" viewBox="0 0 198.75 273.44263" width="198.75pt" xmlns="http://www.w3.org/2000/svg">
   <g transform="matrix(.77941174 0 0 .77941174 -.09742647 -.54802388)">
      <path d="m .125 68.28125v45.57422c0 23.62109 5.636719 145.27734 115.42578 228.57031l10.96875 8.25781 1.21094.85157 2.11719-1.65625 9.86328-7.45313c109.88281-83.29297 115.41406-204.94922 115.41406-228.57031v-45.57422zm0 0" fill="#fff"/>
      <path d="m3.75 72.3125v42.09766c0 23.21484 5.339844 143.26953 113.91016 225.59375 0 0-.10547-.25-.10547-.34375 1.11718 1.10156 3.42578 2.86328 8.0625 6.34375l2.11328 1.45312 9.85937-7.45312c108.47657-82.32422 114.01172-202.37891 114.01172-225.59375v-42.09766zm0 0" fill="#cca857"/>
      <path d="m12.710938 81.375v33.03516c0 22.46093 5.339843 138.67968 110.484372 218.34375l4.53516 3.42578 4.43359-3.42578c105.03125-79.66407 110.47657-195.88282 110.38282-218.34375v-33.03516zm0 0" fill="#fff"/>
      <path d="m24.199219 92.707031h206.957031v.05078l-179.96875 134.605469c-25.082031-52.36719-26.988281-99.75781-26.988281-112.94922zm-8.058594-7.953125v29.660154c0 22.25391 5.238281 136.91407 109.167965 215.67578l2.42188 1.8086 2.3125-1.8086c103.83594-78.76171 109.16797-193.42187 109.16797-215.67578v-29.660154zm0 0" fill="#eb1926"/>
      <path d="m103.75781 151.125c-5.035154.74609-52.167966 7.65234-52.167966 7.65234 0 0 34.039062 33.12891 37.871094 36.8086-1.011719 5.03125-9.066407 51.91797-9.066407 51.91797 0 0 42.199219-22.10157 46.726559-24.52344 4.63282 2.42187 46.63672 24.52344 46.63672 24.52344 0 0-7.96093-46.88672-8.875-51.91797 3.73047-3.67969 37.77344-36.8086 37.77344-36.8086 0 0-47.02734-6.90625-52.16797-7.65234-2.3164-4.58984-23.36719-47.28906-23.36719-47.28906 0 0-21.04297 42.69922-23.36328 47.28906" fill="#cca857"/>
      <path d="m107.48828 156.35938c-3.12891.44531-43.710936 6.29296-43.710936 6.29296 0 0 29.410156 28.75782 31.722656 30.8711-.601562 3.32422-7.453125 43.65625-7.453125 43.65625 0 0 36.160155-19.13672 39.074215-20.54297 2.92188 1.40625 39.17969 20.54297 39.17969 20.54297 0 0-6.94922-40.33203-7.46094-43.65625 2.32422-2.11328 31.625-30.8711 31.625-30.8711 0 0-40.58203-5.84765-43.70312-6.29296-1.51172-2.97657-19.64063-39.68751-19.64063-39.68751 0 0-18.12109 36.71094-19.63281 39.68751" fill="#fff"/>
      <path d="m127.125 124.27734l17.32031 35.10547 38.77344 5.73438-27.98828 27.25 6.53906 38.66797-34.64453-18.27735-34.648438 18.27735 6.550782-38.66797-27.902344-27.25 38.77734-5.73438zm0 0" fill="#eb1926"/>
      <path d="m83.511719 113.15234l13.402343-14.812496h-8.765624l-16.214844 18.335936v-18.335936h-7.558594v38.527346h7.558594v-10.92188l6.542968-7.15234 10.882813 18.07422h8.765625zm-20.234375-14.812496h-8.871094l-16.203125 18.335936v-18.335936h-7.5625v38.527346h7.5625v-10.92188l6.535156-7.15234 10.878907 18.07422h8.757812l-14.601562-23.71485zm0 0" fill="#eb1926"/>
      <path d="m88.0625.703125l7.347656 22.105469 23.367184.15625-18.83984 13.789062 7.05859 22.265625-18.93359-13.59375-18.929688 13.59375 7.046876-22.265625-18.839844-13.789062 23.46875-.15625zm0 0" fill="#cca857" fill-rule="evenodd"/>
      <path d="m163.97266.703125l7.34765 22.105469 23.36328.15625-18.83593 13.789062 7.05859 22.265625-18.93359-13.59375-18.92969 13.59375 7.04687-22.265625-18.83593-13.789062 23.46875-.15625zm0 0" fill="#cca857" fill-rule="evenodd"/>
   </g>
</svg>
