<svg version="1.1" id="Layer_1" xmlns="http://www.w3.org/2000/svg" x="0" y="0" viewBox="0 0 114.2 24" xml:space="preserve" enable-background="new 0 0 114.2 24"><style>.st0,.st3{fill-rule:evenodd;clip-rule:evenodd;fill:#fa5500}.st3{fill:#000e1e}</style><path class="st0" d="M23.2 11.1c-.1-.2-.2-.3-.4-.3-.4-.1-.8-.1-1.2-.2-1.2-.2-3.1-.6-5.2-1.5-2.3-.9-5-2.4-6.2-3.9-.5-.5-.8-1.1-.8-1.7 0 0-.3-2.8 4.7-1.3 0 .1 1.8 5 7.7 5.7.4 0 .7 0 .8-.2C21 3.2 16.7 0 11.6 0c-3.1 0-6 1.3-8.1 3.3l-.2.2c-.3.3-1 1.2-1 2.2 0 1.2 1.4 2.3 3.2 3.2 0 0 4 1.9 6.7 2.6.2 0 .2.1.2.1 0 .1 0 .1-.1.1-2.6.5-6.8 2.5-6.8 2.5s-3.2 1.4-3.2 3.2c0 1 .8 1.9 1 2.3 0 .1.1.1.2.2 2.1 2.1 5 3.3 8.1 3.4 5 0 9.3-3.2 11-7.7 0-.2-.4-.2-.8-.2-6 .6-7.7 5.6-7.8 5.6-5 1.5-4.6-1.3-4.6-1.3 0-2 3.9-4.6 7-5.9.4-.2 3.1-1.2 6.5-1.6.2 0 .3-.2.3-.4v-.7z"/><defs><filter id="Adobe_OpacityMaskFilter" filterUnits="userSpaceOnUse" x="0" y="7.2" width="6.8" height="8.8"><feColorMatrix values="1 0 0 0 0 0 1 0 0 0 0 0 1 0 0 0 0 0 1 0"/></filter></defs><mask maskUnits="userSpaceOnUse" x="0" y="7.2" width="6.8" height="8.8" id="mask0_1_"><path d="M0 7.2h6.8V16H0V7.2z" fill-rule="evenodd" clip-rule="evenodd" fill="#fff" filter="url(#Adobe_OpacityMaskFilter)"/></mask><g mask="url(#mask0_1_)"><path class="st0" d="M6.7 11.7s.1 0 .1-.1-.2-.1-.2-.1c-.7-.3-1.8-.7-2.7-1.1C2.3 9.6 1 8.5 1 7.4c0-.1-.1-.1-.1-.1-.1 0-.1.1-.1.1-.5 1.3-.8 2.7-.8 4.2s.3 2.9.8 4.2l.1.1s.1 0 .1-.1c0-1.2 1.3-2.2 3-3.1.9-.3 1.8-.8 2.7-1z"/></g><path class="st3" d="M92.7 15.9c-.1-.3-.3-.5-.5-.8-.2-.2-.5-.4-.9-.5-.3-.1-.8-.2-1.2-.2-.5 0-.9.1-1.3.2-.4.2-.7.4-1 .7-.3.3-.5.6-.7 1-.2.4-.2.9-.2 1.4 0 .5.1 1 .2 1.4.2.4.4.7.7 1 .3.3.7.5 1.1.6.4.1.9.2 1.3.2.5 0 1 0 1.5-.2.3-.1.5-.2.6-.3.1-.1.1-.1.1-.2V20c0-.2 0-.3-.1-.4l-.3-.3c-.1 0-.2.1-.5.1-.3.1-.7.2-1.2.2s-1-.1-1.3-.4c-.3-.2-.5-.5-.6-.9h2.5c.4 0 .7 0 .9-.1l.6-.3c.1-.1.3-.3.3-.5.1-.2.1-.4.1-.7.1-.2.1-.5-.1-.8zm-1.4 1.2c-.1.1-.3.2-.6.2h-2.2c0-.2 0-.4.1-.6l.3-.6c.1-.2.3-.3.5-.4.2-.1.4-.2.7-.2.2 0 .4 0 .6.1.2.1.3.2.4.3.1.1.2.2.2.4 0 .1.1.3.1.4 0 .2 0 .3-.1.4zM65.1 15.9c-.1-.3-.3-.5-.5-.8-.2-.2-.5-.4-.9-.5-.3-.1-.8-.2-1.2-.2-.5 0-.9.1-1.3.2-.4.2-.7.4-1 .7-.3.3-.5.6-.7 1-.2.4-.2.9-.2 1.4 0 .5.1 1 .2 1.4.2.4.4.7.7 1 .3.3.7.5 1.1.6.4.1.9.2 1.3.2.5 0 1 0 1.5-.2.3-.1.5-.2.6-.3.1-.1.1-.1.1-.2V20c0-.2 0-.3-.1-.4l-.3-.3c-.1 0-.2.1-.5.1-.3.1-.7.2-1.2.2s-1-.1-1.3-.4c-.3-.2-.5-.5-.6-.9h2.5c.4 0 .7 0 .9-.1l.6-.3c.1-.1.3-.3.3-.5.1-.2.1-.4.1-.7.1-.2 0-.5-.1-.8zm-1.5 1.2c-.1.1-.3.2-.6.2h-2.2c0-.2 0-.4.1-.6l.3-.6c.1-.2.3-.3.5-.4.2-.1.4-.2.7-.2.2 0 .4 0 .6.1.2.1.3.2.4.3.1.1.2.2.2.4 0 .1.1.3.1.4 0 .2 0 .3-.1.4zM71.4 15.8c-.2-.3-.4-.6-.7-.8-.3-.2-.6-.4-1-.4-.4-.1-.9-.1-1.3-.1h-.8c-.2 0-.5.1-.6.2-.2.1-.3.2-.4.3-.1.1-.2.3-.2.4 0 .2 0 .3.1.5l.3.3c.1 0 .1-.1.2-.1.1-.1.2-.1.3-.2.1-.1.3-.1.5-.2.2 0 .4-.1.7-.1.5 0 1 .1 1.2.3.3.2.4.5.4.9v.2h-1.3c-.4 0-.7 0-1 .1h-.1-.1c-.5.1-.8.3-1 .6-.6.3-.6.6-.6.8v.4c0 .2.1.4.2.6.1.3.3.5.5.8.2.2.5.4.9.5.3.1.9.2 1.3.2.7 0 1.2-.1 1.7-.1.3 0 .6-.1.8-.1h.2v-3.6c0-.6-.1-1-.2-1.4zm-1.4 4c-.1 0-.3.1-.4.1H68.7c-.7-.1-1-.4-1.1-.7 0-.1-.1-.4 0-.7 0 0 0-.1.1-.1.1-.1.1-.2.3-.2.1 0 .2-.1.2-.1.1 0 .1 0 .2-.1.1 0 .3-.1.4-.1h.3c.4 0 .7.1.9.1h.1v1.8zM58.9 19.5c-.2-.2-.6-.2-.6-.2h-3.2v-6.6c0-.2-.1-.2-.2-.2h-.5c-.6 0-1 .3-1 .9v7.4h5.7v-.6c0-.3-.1-.5-.2-.7zM39.6 14.6c-.3 0-.5.1-.6.2-.2.1-.2.3-.2.5v4.2H38c-.6 0-1.1-.1-1.4-.4-.3-.3-.4-.7-.4-1.2v-3.3s-.1 0-.3-.1c-.2 0-.3-.1-.5-.1-.3 0-.5.1-.6.2-.2.1-.2.3-.2.5V18c0 .9.3 1.6.9 2 .6.5 1.5.7 2.7.7h1.5c.2 0 .4 0 .5-.1h.2v-6s-.1 0-.3-.1c-.1.1-.3.1-.5.1zM45.5 14.8c-.1-.1-.2-.2-.4-.2-.2-.1-.3-.1-.5-.1H44c-.4 0-.7 0-1 .1-.3.1-.6.1-.8.2-.2.1-.4.2-.6.2-.1.1-.2.1-.2.1v5.6H43V16c.1 0 .2-.1.4-.2s.5-.1.8-.1h.4c.1 0 .3 0 .4.1.1 0 .2.1.3.1.1 0 .1 0 .1.1.1-.1.1-.2.2-.3.1-.1.1-.3.1-.5s-.1-.3-.2-.4zM51.6 15.3c-.3-.3-.6-.5-1.1-.7-.4-.2-.9-.3-1.4-.3-.5 0-1 .1-1.4.3-.4.2-.8.4-1.1.7-.3.3-.5.6-.7 1-.2.4-.2.8-.2 1.3s.1.9.2 1.3c.2.4.4.7.7 1 .3.3.7.5 1.1.7.4.2.9.3 1.4.3.5 0 1-.1 1.4-.3.4-.2.8-.4 1.1-.7.3-.3.5-.6.7-1 .2-.4.2-.8.2-1.3s-.1-.9-.2-1.3c-.1-.3-.4-.7-.7-1zm-.8 3.2c-.1.2-.2.5-.3.6-.1.2-.3.3-.5.4-.2.1-.5.2-.7.2-.3 0-.5-.1-.7-.2-.2-.1-.4-.2-.5-.4-.1-.2-.3-.4-.3-.6-.1-.2-.1-.5-.1-.8 0-.3 0-.5.1-.8.1-.2.2-.5.3-.6.1-.2.3-.3.5-.4.2-.1.5-.2.7-.2.3 0 .5.1.7.2.2.1.4.2.5.4.1.2.3.4.3.6.1.2.1.5.1.8 0 .2 0 .5-.1.8zM85.3 14.6c-.3 0-.5.1-.6.2-.1.1-.2.3-.2.5v4.2h-.8c-.6 0-1.1-.1-1.3-.4-.3-.3-.4-.7-.4-1.2v-3.3c-.1 0-.1 0-.3-.1-.2 0-.3-.1-.5-.1-.3 0-.5.1-.6.2-.1.1-.2.3-.2.5V18c0 .9.3 1.6.8 2 .6.5 1.5.7 2.7.7h1.5c.2 0 .4 0 .5-.1h.2v-6c-.1 0-.2 0-.3-.1-.1.2-.3.1-.5.1zM28.1 13.6v6.3c0 .6.3.9 1 .9H34c0-.8-.1-1.5-1.3-1.5h-2.8v-1.9h2.5s.1 0 .1-.1l.3-1.3s0-.1-.1-.1h-2.8v-2H33c.6 0 .9-.3.9-1v-.5H29c-.4 0-.9.5-.9 1.2zM79.1 14.6h-.3c-.9-.1-1.7-.2-2.2-.2h-.2-.9c-.3 0-.6.1-.9.2-.4.2-.8.4-1.1.7-.3.3-.5.7-.7 1.1 0 .1 0 .1-.1.2-.1.4-.2.8-.2 1.2 0 .5.1 1 .2 1.3.1.4.4.7.6 1 .3.3.6.5.9.6.4.1.8.2 1.2.2.2 0 .5 0 .7-.1.2-.1.4-.1.5-.2.1-.1.3-.1.4-.2.1-.1.2-.1.2-.2l.3-.3v.6c0 .4-.1.7-.2.9-.1.3-.3.5-.4.6-.2.2-.4.3-.7.4-.4.1-1.1.1-1.6 0-.2 0-.5-.1-.6-.1-.1 0-.3-.1-.4-.1 0 0-.1 0-.1-.1-.1 0-.2.1-.3.2-.1.1-.2.2-.2.4v.2s0 .1.1.2c0 .1.1.2.2.2.2.2.6.3 1.2.4.2 0 .4 0 .7.1 1.1.1 2.2-.2 3-1l.1-.1c.3-.3.5-.7.7-1.1.2-.5.3-1.1.3-1.7V14.5c-.1.2-.1.2-.2.1zm-3.3 5.1c-.5 0-.9-.1-1.2-.4-.3-.3-.5-.8-.5-1.3 0-1.1.6-2.3 3-2 .1 0 .3 0 .4.1v1.7c.1.5-.3 1.9-1.7 1.9z"/><path class="st3" d="M29.5 15.9h3.3c.3 0 .5.1.6.2.1.1.2.3.2.5s0 .3-.1.5c-.1.1-.1.2-.1.3h-3.9M67.2 9.8V7h-2.8v2.8h-1.5V3.2h1.5v2.6h2.8V3.2h1.5v6.6h-1.5zM34.3 3.2v4.1c0 .5.1.9.2 1.2.1.3.3.6.6.8.2.2.5.4.9.5.3.1.7.1 1.2.1.4 0 .8 0 1.2-.1.3-.1.6-.2.8-.4.2-.2.4-.5.5-.8.1-.3.2-.7.2-1.2V3.2h-1.4v4.1c0 .4-.1.8-.3 1-.2.3-.5.4-1 .4-.4 0-.8-.1-1-.4-.2-.2-.3-.6-.3-1V3.2h-1.6zM29.8 9.8V4.4H28V3.2h5.1v.6c0 .4-.3.6-.6.6h-1.2v5.4h-1.5zM54.4 9.8h1.5V3.2h-1.5v6.6zM49.3 6.7l2 2.6c.2.3.6.5 1 .5h1.2l-2.8-3.6V6L53 3h-1.6l-2 3-.1.1V3.2h-1.5v6.6h1.5V6.7zM45.8 9.8c-.5 0-.9-.2-1.1-.6l-1.2-2h-.8v2.6h-1.5V3.2h2.7c.7 0 1.2.2 1.6.5.4.4.6.9.6 1.5 0 .3-.1.6-.2.9-.2.3-.4.6-.8.7H45l1.9 2.9h-1.1zm-3.1-3.6h.9c.3 0 .6-.1.7-.3.2-.2.2-.4.2-.7 0-.3-.1-.5-.2-.7-.2-.2-.4-.3-.7-.3h-.9v2zM57.2 9.5V8.2c.5.2 1.1.4 1.8.4s1.1-.3 1.1-.7c0-.6-.5-.6-1.5-1.1-.7-.3-1.4-.8-1.4-1.9 0-1.3 1-1.9 2.3-1.9.7 0 1.3.2 1.7.3v1.2c-.3-.2-1-.4-1.6-.4-.7 0-1 .2-1 .7 0 .4.4.6 1.1.8.9.4 1.9.6 1.9 2.1 0 1.3-1 2-2.4 2-.8.2-1.5 0-2-.2zM104.4 9.8V3.2h4.1v.6c0 .4-.3.6-.6.6h-2v1.4h2.2v1.1h-2.2v1.6h2.6v1.2h-4.1zM89.3 9.8V3.2h.7c.4 0 .8.4.8.8v4.6h2.4v1.2h-3.9zM79.8 9.8h1.5V3.2h-1.5v6.6zM87.3 9.8c-.5 0-.9-.2-1.1-.6l-1.2-2h-.8v2.6h-1.5V3.2h2.7c.7 0 1.2.2 1.6.5.4.4.6.9.6 1.5 0 .3-.1.6-.2.9-.2.3-.4.6-.8.7h-.1l1.9 2.9h-1.1zm-3-3.6h.9c.3 0 .6-.1.7-.3.2-.2.2-.4.2-.7 0-.3-.1-.5-.2-.7-.2-.2-.4-.3-.7-.3h-.9v2zM76.4 3.2h-1.8l-2.5 6.6h1.1c.3 0 .5-.2.6-.4l.3-.8h2.7l.4 1.2h1.7l-2.5-6.6zm-1.8 4.2l.6-1.7c.1-.4.3-.8.4-1.1.1.3.2.7.3 1.1l.6 1.7h-1.9zM109.7 9.5V8.2c.5.2 1.1.4 1.8.4s1.1-.3 1.1-.7c0-.6-.5-.6-1.5-1.1-.7-.3-1.4-.8-1.4-1.9 0-1.3 1-1.9 2.3-1.9.7 0 1.3.2 1.7.3v1.2c-.3-.2-1-.4-1.6-.4-.7 0-1 .2-1 .7 0 .4.4.6 1.1.8.9.4 1.9.6 1.9 2.1 0 1.3-1 2-2.4 2-.8.2-1.4 0-2-.2zM97.1 3.2h.9c.5 0 .9.2 1.1.6l1.8 3c.2.3.4.8.6 1.1V3.2h1.3v6.6h-1.7l-2.2-3.6c-.2-.3-.4-.7-.6-1V9.8H97V3.2zM94.2 9.8h1.5V3.2h-1.5v6.6z"/></svg>